<svg xmlns="http://www.w3.org/2000/svg" viewBox="0 0 64 64">
  <defs>
    <path id="cp" d="M27.94 18.67 L28.07 18.3 L28.32 17.95 L28.67 17.62 L29.15 17.32 L30.2 16.91 L31.24 16.77 L31.81 16.84 L32.21 17.02 L32.41 17.35 L32.42 17.8 L32.26 18.71 L31.96 20.34 L31.66 21.84 L31.36 23.19 L31.05 24.41 L30.71 25.56 L30.29 26.71 L29.77 27.82 L29.19 28.92 L28.51 29.96 L27.74 30.89 L26.88 31.69 L25.91 32.39 L24.59 33.11 L23.26 33.64 L21.91 33.95 L20.55 34.05 L19.75 34.01 L18.97 33.89 L18.22 33.67 L17.51 33.38 L16.84 32.99 L16.22 32.51 L15.66 31.94 L15.15 31.27 L14.43 30 L13.9 28.62 L13.57 27.17 L13.47 25.62 L13.52 24.54 L13.66 23.4 L13.91 22.22 L14.24 21 L14.68 19.74 L15.2 18.44 L15.82 17.09 L16.54 15.7 L17.06 14.77 L17.6 13.95 L18.14 13.22 L18.7 12.6 L19.3 12.09 L19.97 11.67 L20.72 11.39 L21.54 11.21 L21.97 11.17 L22.57 11.24 L23.09 11.41 L23.65 10.19 L24.15 9.11 L24.56 8.21 L24.91 7.47 L25.1 7.19 L25.39 6.92 L25.77 6.67 L26.25 6.44 L27.27 6.11 L28.21 6 L28.74 6.05 L29.11 6.2 L29.34 6.44 L29.41 6.76 L29.38 6.96 L29.29 7.24 L28.62 8.86 L27.99 10.39 L27.38 11.82 L26.8 13.16 L26.26 14.41 L25.75 15.56 L25.27 16.62 L24.84 17.6 L24.65 17.91 L24.38 18.19 L24.01 18.45 L23.55 18.67 L22.55 19.01 L21.59 19.11 L21.01 19.06 L20.55 18.91 L20.25 18.66 L20.15 18.27 L20.19 18 L20.31 17.69 L20.91 16.34 L20.55 16.14 L19.75 18 L19.25 19.21 L18.84 20.42 L18.51 21.64 L18.29 22.85 L18.16 24.4 L18.3 26.06 L18.69 27.61 L18.97 28.34 L19.35 28.98 L20.31 30.04 L20.76 30.39 L21.21 30.64 L21.66 30.79 L22.1 30.84 L22.54 30.79 L22.95 30.65 L23.36 30.41 L23.77 30.07 L24.17 29.65 L24.56 29.12 L24.94 28.51 L25.3 27.8 L25.66 26.99 L26.01 26.09 L26.36 25.09 L26.69 24 L27.01 22.81 L27.34 21.52 L27.64 20.15 L27.94 18.67 Z M45.41 23.29 L45.67 22.54 L45.86 21.8 L46 20.39 L45.94 19.51 L45.75 18.72 L45.42 18.02 L44.97 17.41 L44.06 16.61 L42.9 16.05 L41.46 15.74 L39.76 15.66 L39.59 17.27 L39.42 18.96 L39.27 20.72 L39.14 22.57 L39 24.51 L38.88 26.52 L38.76 28.62 L38.65 30.8 L39.75 30.15 L40.8 29.41 L41.79 28.57 L42.71 27.64 L43.55 26.62 L44.27 25.56 L44.9 24.45 L45.41 23.29 Z M40.16 12.56 L40.72 12.54 L41.51 12.52 L42.69 12.56 L43.79 12.67 L44.81 12.86 L45.75 13.11 L46.61 13.45 L47.4 13.86 L48.11 14.34 L48.75 14.9 L49.52 15.84 L50.09 16.9 L50.42 18.09 L50.54 19.39 L50.5 20.14 L50.38 20.96 L50.17 21.85 L49.9 22.81 L49.14 24.62 L48.15 26.35 L46.95 27.98 L45.52 29.5 L43.94 30.89 L42.25 32.11 L40.45 33.15 L38.54 34.01 L38.46 35.97 L38.4 37.81 L38.34 39.51 L38.3 41.1 L38.26 42.55 L38.22 43.89 L38.2 45.09 L38.17 46.16 L38.1 51.02 L37.94 55.9 L37.85 56.31 L37.62 56.69 L37.25 57.05 L36.75 57.38 L36.17 57.65 L35.59 57.85 L35 57.96 L34.4 58 L33.79 57.94 L33.36 57.75 L33.1 57.42 L33.01 56.97 L33.05 53.8 L33.06 53.34 L33.07 52.75 L33.1 52.02 L33.11 51.15 L33.12 50.15 L33.15 49.01 L33.17 47.74 L33.2 46.32 L33.26 43.41 L33.34 40.6 L33.42 37.9 L33.54 35.29 L31.42 35.4 L30.77 35.34 L30.3 35.16 L30.01 34.89 L29.91 34.52 L29.98 34.16 L30.16 33.8 L30.46 33.41 L30.89 33.02 L31.38 32.67 L31.88 32.42 L32.36 32.27 L32.86 32.22 L33.34 32.21 L33.65 32.19 L33.9 27.96 L34.2 23.81 L34.57 19.75 L35 15.77 L34.79 15.57 L34.72 15.26 L34.85 14.75 L35.24 14.15 L35.26 13.82 L35.32 13.35 L35.45 12.95 L35.7 12.57 L36.07 12.22 L36.59 11.9 L37.72 11.45 L38.27 11.32 L38.81 11.29 L39.41 11.36 L39.86 11.56 L40.12 11.91 L40.16 12.4 Z"/>
    <filter id="glow" x="-30%" y="-30%" width="160%" height="160%">
      <feGaussianBlur stdDeviation="1.6" result="b"/>
      <feMerge><feMergeNode in="b"/><feMergeNode in="SourceGraphic"/></feMerge>
    </filter>
  </defs>
  <rect width="64" height="64" rx="14" fill="#131217"/>
  <use href="#cp" fill="#57C7F2" opacity="0.45" transform="translate(-2 0)"/>
  <use href="#cp" fill="#F23B3F" opacity="0.45" transform="translate(2 0)"/>
  <use href="#cp" fill="#F2DE45" filter="url(#glow)"/>
</svg>